<svg id="Layer_1" data-name="Layer 1" xmlns="http://www.w3.org/2000/svg" viewBox="0 0 386.63 98.1"><defs><style>.cls-1,.cls-2{fill:#1e76bd;}.cls-2{font-size:15.23px;font-family:UniversLTStd-Bold, Univers LT Std;font-weight:700;letter-spacing:-0.01em;}.cls-3{letter-spacing:-0.04em;}.cls-4{letter-spacing:-0.03em;}.cls-5{letter-spacing:-0.09em;}.cls-6{letter-spacing:-0.03em;}</style></defs><rect class="cls-1" x="176.31" y="30.48" width="0.81" height="39.81"/><path class="cls-1" d="M34.6,43.38v6.95a2.84,2.84,0,0,0,1.76-.44A3,3,0,0,0,36.74,48V45.7c0-1.07-.11-1.71-.34-1.94a3.14,3.14,0,0,0-1.8-.38m0-9.43v5.56c.28,0,.49,0,.65,0,.64,0,1-.16,1.23-.47a7.9,7.9,0,0,0,.26-2.7,4.26,4.26,0,0,0-.22-1.64,1,1,0,0,0-.57-.59A5.06,5.06,0,0,0,34.6,34m-6.49-4.28h6.48a17,17,0,0,1,4.65.48,4.63,4.63,0,0,1,2.55,1.93,8.75,8.75,0,0,1,1,4.69,5,5,0,0,1-.69,3,4.65,4.65,0,0,1-2.7,1.33,4.8,4.8,0,0,1,3.05,1.69,6.52,6.52,0,0,1,.8,3.61v2.31a9.08,9.08,0,0,1-.58,3.74,3.08,3.08,0,0,1-1.84,1.66,18.78,18.78,0,0,1-5.18.45H28.11V29.67"/><path class="cls-1" d="M51.09,34.18l-.24,2.69a5.13,5.13,0,0,1,4.31-3.1v7.17a7.07,7.07,0,0,0-2.9.47,1.93,1.93,0,0,0-1,1.29,23.9,23.9,0,0,0-.18,3.81v8.1H44.84V34.18h6.25"/><rect class="cls-1" x="56.5" y="36.33" width="6.42" height="18.27"/><path class="cls-1" d="M72.54,39.59a5.79,5.79,0,0,0-.16-1.78.68.68,0,0,0-.71-.39.77.77,0,0,0-.76.44,4.59,4.59,0,0,0-.22,1.73v6.87a5.86,5.86,0,0,0,.17,1.78.67.67,0,0,0,.7.41.76.76,0,0,0,.8-.5,8.27,8.27,0,0,0,.18-2.23Zm6.25-5.41V49.92A36.9,36.9,0,0,1,78.65,54a4.18,4.18,0,0,1-1.05,2,5.49,5.49,0,0,1-2.49,1.58,12.66,12.66,0,0,1-4,.55,9.81,9.81,0,0,1-4.78-1c-1.21-.67-1.83-2-1.87-4h6c0,.89.33,1.33,1,1.33.48,0,.8-.13,1-.42a4,4,0,0,0,.24-1.73V50.81A6,6,0,0,1,71,51.92a4.79,4.79,0,0,1-1.86.37,5.14,5.14,0,0,1-2.78-.68,3.41,3.41,0,0,1-1.48-1.78,9.43,9.43,0,0,1-.41-3.13V39.26a6.68,6.68,0,0,1,1-4.21,3.89,3.89,0,0,1,3.19-1.27,4.74,4.74,0,0,1,2.14.48,5.07,5.07,0,0,1,1.72,1.47L73,34.18h5.78"/><path class="cls-1" d="M86.69,29.67v5.61a5.59,5.59,0,0,1,1.74-1.13,5.26,5.26,0,0,1,2-.37,4.58,4.58,0,0,1,2.78.83,3.28,3.28,0,0,1,1.4,1.92,20.49,20.49,0,0,1,.25,4V54.61H88.6V40.23a9,9,0,0,0-.17-2.3.74.74,0,0,0-.78-.51.75.75,0,0,0-.76.53,7,7,0,0,0-.2,2.08V54.61H80.44V29.67h6.25"/><path class="cls-1" d="M103.3,31v3.18h1.62v4.17H103.3V48.83a6.2,6.2,0,0,0,.2,2.25c.14.15.71.23,1.71.23v3.3h-2.5a17.54,17.54,0,0,1-3-.18,3.19,3.19,0,0,1-1.6-.82,2.71,2.71,0,0,1-.86-1.46,26.39,26.39,0,0,1-.17-3.88V38.35H95.72V34.18h1.33V31h6.25"/><path class="cls-1" d="M127.35,34.18l-2.5,20.43h-6.74q-.56-3.75-1.32-9.91c-.17,1.82-.41,3.64-.7,5.47l-.67,4.44h-6.74L106,34.18h5.32q.11.8,1.42,11.74.14-1.17,1.38-11.74h5.18l1.26,11.74q.34-5.16,1.44-11.74h5.35"/><path class="cls-1" d="M135.85,44.85a4.6,4.6,0,0,0-1.73,1.83,7.21,7.21,0,0,0-.24,2.12,6.14,6.14,0,0,0,.21,2.05.82.82,0,0,0,.82.46c.39,0,.65-.12.76-.36a5.76,5.76,0,0,0,.18-1.9Zm-2-2.8H128V40.69a9.78,9.78,0,0,1,.55-3.66,5.06,5.06,0,0,1,2.2-2.27,8.27,8.27,0,0,1,4.3-1,8.43,8.43,0,0,1,4.77,1.11,4.42,4.42,0,0,1,1.93,2.75,42.7,42.7,0,0,1,.32,6.7V54.61H136V52.75a4,4,0,0,1-1.47,1.65,4,4,0,0,1-2.15.55,5.27,5.27,0,0,1-3-.91c-.91-.61-1.37-1.95-1.37-4V48.34a4.94,4.94,0,0,1,.73-3.13,10.37,10.37,0,0,1,3.59-1.94c2.05-.81,3.14-1.34,3.28-1.62a4.06,4.06,0,0,0,.22-1.68,5.59,5.59,0,0,0-.24-2.07.82.82,0,0,0-.79-.48c-.42,0-.68.14-.78.41a7.71,7.71,0,0,0-.16,2.1v2.12"/><path class="cls-1" d="M156.83,34.18,155.06,49c-.29,2.36-.52,4-.71,4.82a5.24,5.24,0,0,1-.95,2.12,3.85,3.85,0,0,1-1.83,1.22,13,13,0,0,1-3.75.39h-3.76V54.2a7.67,7.67,0,0,0,1.86-.14.63.63,0,0,0,.41-.66c0-.16-.13-.87-.39-2.14l-3.39-17.08h5.6L150.22,48l1-13.85h5.58"/><polygon class="cls-1" points="63.83 57.48 28.13 57.48 28.13 56.09 62.91 56.09 63.83 57.48"/><polygon class="cls-1" points="142.07 57.48 79.41 57.48 80.34 56.09 142.07 56.09 142.07 57.48"/><path class="cls-1" d="M63,31.42a3.29,3.29,0,1,1-3.28-3.29A3.28,3.28,0,0,1,63,31.42"/><path class="cls-1" d="M55.59,30.91l-12.34.51,12.33.52a3.91,3.91,0,0,1,0-.49,3.27,3.27,0,0,1,0-.54m1.6-2.76-9.1-8.37,8.36,9.1a3.66,3.66,0,0,1,.74-.73m6.65,2.75a3.41,3.41,0,0,1,0,.55,3.89,3.89,0,0,1,0,.49l12.35-.52Zm-.83-2,8.36-9.1-9.1,8.37a4.26,4.26,0,0,1,.74.73m-2.76-1.58L59.73,15l-.52,12.34.51,0a4.58,4.58,0,0,1,.53,0"/><rect class="cls-1" x="28.13" y="60.38" width="3.12" height="10.09"/><polygon class="cls-1" points="37.01 70.47 37.01 60.38 41.23 60.38 45.2 67.36 45.24 67.36 45.24 60.38 48.16 60.38 48.16 70.47 44.04 70.47 39.97 63.1 39.92 63.1 39.92 70.47 37.01 70.47"/><path class="cls-1" d="M58,70.64c-3.87,0-4.59-1.54-4.43-3.29h3.13c0,1,.06,1.78,1.78,1.78,1,0,1.57-.46,1.57-1.15,0-1.82-6.29-1.93-6.29-4.93,0-1.58,1.12-2.84,4.92-2.84,3,0,4.56.93,4.35,3h-3c0-.75-.19-1.52-1.45-1.52-1,0-1.62.38-1.62,1.08,0,1.91,6.29,1.74,6.29,4.92,0,2.61-2.83,2.92-5.21,2.92"/><path class="cls-1" d="M78.6,60.38v7.15c0,1.51-1.26,3.11-5.07,3.11-3.43,0-5.09-1.21-5.09-3.11V60.38h3.12v7c0,1.24.79,1.73,1.93,1.73,1.37,0,2-.62,2-1.73v-7H78.6"/><path class="cls-1" d="M87.31,64.74H88.7a1.42,1.42,0,0,0,1.59-1.48c0-1-.6-1.33-1.59-1.33H87.31Zm0,5.73H84.19V60.38H90c2.13,0,3.49.92,3.49,2.64,0,1.28-.74,2.25-2.76,2.47v0c.67.06,2.7.17,2.7,2a9.21,9.21,0,0,0,.36,3H90.69a3.2,3.2,0,0,1-.34-2c0-1.21.17-2.23-2.23-2.23h-.81v4.18"/><path class="cls-1" d="M103.74,62.32h0l-1.43,4.36h3Zm-6,8.15,4.14-10.09H106l4,10.09h-3.29l-.83-2.23h-4.26l-.85,2.23Z"/><polygon class="cls-1" points="114.62 70.47 114.62 60.38 118.84 60.38 122.82 67.36 122.86 67.36 122.86 60.38 125.78 60.38 125.78 70.47 121.66 70.47 117.58 63.1 117.54 63.1 117.54 70.47 114.62 70.47"/><path class="cls-1" d="M131.36,65.42c0-2.66,0-5.21,5.16-5.21,3.18,0,4.47,1.19,4.34,3.36H137.8c0-1.35-.35-1.85-1.28-1.85-1.76,0-2,1.12-2,3.7s.23,3.71,2,3.71c1.44,0,1.38-1.26,1.42-2H141c0,2.69-1.6,3.56-4.51,3.56-5.16,0-5.16-2.58-5.16-5.22"/><polygon class="cls-1" points="146.11 70.47 146.11 60.38 154.27 60.38 154.27 61.93 149.24 61.93 149.24 64.42 153.88 64.42 153.88 65.97 149.24 65.97 149.24 68.92 154.44 68.92 154.44 70.47 146.11 70.47"/><path class="cls-1" d="M159.58,36.61h.27c.32,0,.58-.11.58-.37s-.17-.38-.53-.38a1.8,1.8,0,0,0-.32,0Zm0,1.39H159V35.51a9,9,0,0,1,.95-.07,1.28,1.28,0,0,1,.85.2.63.63,0,0,1,.26.53.63.63,0,0,1-.51.59v0c.24.07.36.27.43.6a2.11,2.11,0,0,0,.19.61h-.61a2.2,2.2,0,0,1-.2-.61c0-.25-.2-.38-.52-.38h-.26ZM158,36.71a1.94,1.94,0,0,0,1.94,2,1.91,1.91,0,0,0,1.9-2,1.92,1.92,0,1,0-3.84,0m4.48,0A2.56,2.56,0,1,1,160,34.23a2.51,2.51,0,0,1,2.54,2.48"/><text class="cls-2" transform="matrix(0.98, 0, -0.17, 0.98, 184.68, 54.97)">The Geo<tspan class="cls-3" x="59.87" y="0">r</tspan><tspan class="cls-4" x="65.27" y="0">g</tspan><tspan x="74.12" y="0">e Collins</tspan><tspan class="cls-5" x="134.54" y="0"> </tspan><tspan class="cls-6" x="137.4" y="0">Ag</tspan><tspan x="156.79" y="0">ency</tspan></text></svg>