<?xml version="1.0" encoding="utf-8"?>
<!-- Generator: Adobe Illustrator 25.4.1, SVG Export Plug-In . SVG Version: 6.00 Build 0)  -->
<svg version="1.1" id="Layer_1" xmlns="http://www.w3.org/2000/svg" xmlns:xlink="http://www.w3.org/1999/xlink" x="0px" y="0px"
	 viewBox="0 0 25 25" style="enable-background:new 0 0 25 25;" xml:space="preserve">
<style type="text/css">
	.st0{fill-rule:evenodd;clip-rule:evenodd;fill:#FFFFFF;}
	.st1{fill-rule:evenodd;clip-rule:evenodd;fill:#0077C8;}
</style>
<desc>Created using Figma</desc>
<g id="Canvas" transform="translate(-4909 -2705)">
	<g id="noun_376853_cc">
		<g id="Group">
			<g id="Vector">
				<g transform="translate(4909 2705)">
					<path id="path0_fill" class="st0" d="M4924.7,2720.5c-0.1,0.9-0.4,1.8-0.6,2.5c-0.2,0.5-0.4,0.9-0.6,1.2c2-0.6,3.6-1.9,4.4-3.7
						H4924.7z M4919.3,2720.5c0.1,0.8,0.3,1.5,0.6,2.1c0.2,0.6,0.5,1.1,0.8,1.4c0.3,0.3,0.5,0.4,0.8,0.4s0.5-0.1,0.8-0.4
						c0.3-0.3,0.6-0.8,0.8-1.4c0.2-0.6,0.4-1.3,0.6-2.1H4919.3z M4919,2723c-0.3-0.7-0.5-1.6-0.6-2.5h-3.1c0.9,1.8,2.5,3.2,4.4,3.7
						C4919.4,2723.9,4919.1,2723.5,4919,2723z M4928.2,2715.5h-3.4c0.1,0.6,0.1,1.3,0.1,2s-0.1,1.4-0.1,2h3.4c0.2-0.6,0.3-1.3,0.3-2
						S4928.4,2716.1,4928.2,2715.5z M4923.8,2715.5h-4.6c-0.1,0.6-0.1,1.3-0.1,2s0.1,1.4,0.1,2h4.6c0.1-0.6,0.1-1.3,0.1-2
						S4923.9,2716.1,4923.8,2715.5z M4918.2,2715.5h-3.4c-0.2,0.6-0.3,1.3-0.3,2s0.1,1.4,0.3,2h3.4c-0.1-0.6-0.1-1.3-0.1-2
						S4918.1,2716.1,4918.2,2715.5z M4923.4,2710.8c0.2,0.4,0.5,0.8,0.6,1.2c0.3,0.7,0.5,1.6,0.6,2.5h3.1
						C4927,2712.7,4925.4,2711.3,4923.4,2710.8z M4915.2,2714.5h3.1c0.1-0.9,0.4-1.8,0.6-2.5c0.2-0.5,0.4-0.9,0.6-1.2
						C4917.6,2711.3,4916,2712.7,4915.2,2714.5z M4923.1,2712.4c-0.2-0.6-0.5-1.1-0.8-1.4c-0.3-0.3-0.5-0.4-0.8-0.4
						s-0.5,0.1-0.8,0.4c-0.3,0.3-0.6,0.8-0.8,1.4c-0.2,0.6-0.4,1.3-0.6,2.1h4.3C4923.5,2713.7,4923.3,2713,4923.1,2712.4z
						 M4928.2,2715.5h-3.4c0.1,0.6,0.1,1.3,0.1,2s-0.1,1.4-0.1,2h3.4c0.2-0.6,0.3-1.3,0.3-2S4928.4,2716.1,4928.2,2715.5z
						 M4924.7,2714.5h3.1c-0.9-1.8-2.5-3.2-4.4-3.7c0.2,0.4,0.5,0.8,0.6,1.2C4924.3,2712.7,4924.5,2713.6,4924.7,2714.5z M4924,2723
						c-0.2,0.5-0.4,0.9-0.6,1.2c2-0.6,3.6-1.9,4.4-3.7h-3.1C4924.5,2721.4,4924.3,2722.3,4924,2723z M4919.1,2717.5
						c0,0.7,0.1,1.4,0.1,2h4.6c0.1-0.6,0.1-1.3,0.1-2s-0.1-1.4-0.1-2h-4.6C4919.1,2716.1,4919.1,2716.8,4919.1,2717.5z
						 M4923.7,2714.5c-0.1-0.8-0.3-1.5-0.6-2.1c-0.2-0.6-0.5-1.1-0.8-1.4c-0.3-0.3-0.5-0.4-0.8-0.4s-0.5,0.1-0.8,0.4
						c-0.3,0.3-0.6,0.8-0.8,1.4c-0.2,0.6-0.4,1.3-0.6,2.1H4923.7z M4919.3,2720.5c0.1,0.8,0.3,1.5,0.6,2.1c0.2,0.6,0.5,1.1,0.8,1.4
						c0.3,0.3,0.5,0.4,0.8,0.4s0.5-0.1,0.8-0.4c0.3-0.3,0.6-0.8,0.8-1.4c0.2-0.6,0.4-1.3,0.6-2.1H4919.3z M4919,2712
						c0.2-0.5,0.4-0.9,0.6-1.2c-2,0.6-3.6,1.9-4.4,3.7h3.1C4918.5,2713.6,4918.7,2712.7,4919,2712z M4918.3,2720.5h-3.1
						c0.9,1.8,2.5,3.2,4.4,3.7c-0.2-0.4-0.5-0.8-0.6-1.2C4918.7,2722.3,4918.5,2721.4,4918.3,2720.5z M4918.1,2717.5
						c0-0.7,0.1-1.4,0.1-2h-3.4c-0.2,0.6-0.3,1.3-0.3,2s0.1,1.4,0.3,2h3.4C4918.1,2718.9,4918.1,2718.2,4918.1,2717.5z
						 M4930.3,2708.7c-2.3-2.3-5.5-3.7-8.8-3.7s-6.5,1.3-8.8,3.7c-2.3,2.4-3.7,5.5-3.7,8.8s1.3,6.5,3.7,8.8c2.3,2.3,5.5,3.7,8.8,3.7
						s6.5-1.3,8.8-3.7c2.3-2.4,3.7-5.5,3.7-8.8S4932.7,2711,4930.3,2708.7z M4921.5,2725.5c-4.4,0-8-3.6-8-8s3.6-8,8-8s8,3.6,8,8
						S4925.9,2725.5,4921.5,2725.5z M4924.9,2717.5c0,0.7-0.1,1.4-0.1,2h3.4c0.2-0.6,0.3-1.3,0.3-2s-0.1-1.4-0.3-2h-3.4
						C4924.9,2716.1,4924.9,2716.8,4924.9,2717.5z M4923.4,2710.8c0.2,0.4,0.5,0.8,0.6,1.2c0.3,0.7,0.5,1.6,0.6,2.5h3.1
						C4927,2712.7,4925.4,2711.3,4923.4,2710.8z M4924,2723c-0.2,0.5-0.4,0.9-0.6,1.2c2-0.6,3.6-1.9,4.4-3.7h-3.1
						C4924.5,2721.4,4924.3,2722.3,4924,2723z M4919.1,2717.5c0,0.7,0.1,1.4,0.1,2h4.6c0.1-0.6,0.1-1.3,0.1-2s-0.1-1.4-0.1-2h-4.6
						C4919.1,2716.1,4919.1,2716.8,4919.1,2717.5z M4923.7,2714.5c-0.1-0.8-0.3-1.5-0.6-2.1c-0.2-0.6-0.5-1.1-0.8-1.4
						c-0.3-0.3-0.5-0.4-0.8-0.4s-0.5,0.1-0.8,0.4c-0.3,0.3-0.6,0.8-0.8,1.4c-0.2,0.6-0.4,1.3-0.6,2.1H4923.7z M4919.3,2720.5
						c0.1,0.8,0.3,1.5,0.6,2.1c0.2,0.6,0.5,1.1,0.8,1.4c0.3,0.3,0.5,0.4,0.8,0.4s0.5-0.1,0.8-0.4c0.3-0.3,0.6-0.8,0.8-1.4
						c0.2-0.6,0.4-1.3,0.6-2.1H4919.3z M4919,2712c0.2-0.5,0.4-0.9,0.6-1.2c-2,0.6-3.6,1.9-4.4,3.7h3.1
						C4918.5,2713.6,4918.7,2712.7,4919,2712z M4918.3,2720.5h-3.1c0.9,1.8,2.5,3.2,4.4,3.7c-0.2-0.4-0.5-0.8-0.6-1.2
						C4918.7,2722.3,4918.5,2721.4,4918.3,2720.5z M4918.1,2717.5c0-0.7,0.1-1.4,0.1-2h-3.4c-0.2,0.6-0.3,1.3-0.3,2s0.1,1.4,0.3,2
						h3.4C4918.1,2718.9,4918.1,2718.2,4918.1,2717.5z"/>
					<path class="st1" d="M4921.5,2709.5c-4.4,0-8,3.6-8,8s3.6,8,8,8s8-3.6,8-8S4925.9,2709.5,4921.5,2709.5z M4927.8,2714.5h-3.1
						c-0.1-0.9-0.4-1.8-0.6-2.5c-0.2-0.5-0.4-0.9-0.6-1.2C4925.4,2711.3,4927,2712.7,4927.8,2714.5z M4923.9,2717.5
						c0,0.7-0.1,1.4-0.1,2h-4.6c-0.1-0.6-0.1-1.3-0.1-2s0.1-1.4,0.1-2h4.6C4923.9,2716.1,4923.9,2716.8,4923.9,2717.5z
						 M4920.7,2710.9c0.3-0.3,0.5-0.4,0.8-0.4s0.5,0.1,0.8,0.4c0.3,0.3,0.6,0.8,0.8,1.4c0.2,0.6,0.4,1.3,0.6,2.1h-4.3
						c0.1-0.8,0.3-1.5,0.6-2.1C4920.1,2711.7,4920.4,2711.2,4920.7,2710.9z M4919.6,2710.8c-0.2,0.4-0.5,0.8-0.6,1.2
						c-0.3,0.7-0.5,1.6-0.6,2.5h-3.1C4916,2712.7,4917.6,2711.3,4919.6,2710.8z M4914.5,2717.5c0-0.7,0.1-1.4,0.3-2h3.4
						c-0.1,0.6-0.1,1.3-0.1,2s0.1,1.4,0.1,2h-3.4C4914.6,2718.9,4914.5,2718.2,4914.5,2717.5z M4915.2,2720.5h3.1
						c0.1,0.9,0.4,1.8,0.6,2.5c0.2,0.5,0.4,0.9,0.6,1.2C4917.6,2723.7,4916,2722.3,4915.2,2720.5z M4922.3,2724.1
						c-0.3,0.3-0.5,0.4-0.8,0.4s-0.5-0.1-0.8-0.4c-0.3-0.3-0.6-0.8-0.8-1.4c-0.2-0.6-0.4-1.3-0.6-2.1h4.3c-0.1,0.8-0.3,1.5-0.6,2.1
						C4922.9,2723.3,4922.6,2723.8,4922.3,2724.1z M4923.4,2724.2c0.2-0.4,0.5-0.8,0.6-1.2c0.3-0.7,0.5-1.6,0.6-2.5h3.1
						C4927,2722.3,4925.4,2723.7,4923.4,2724.2z M4924.8,2719.5c0.1-0.6,0.1-1.3,0.1-2s-0.1-1.4-0.1-2h3.4c0.2,0.6,0.3,1.3,0.3,2
						s-0.1,1.4-0.3,2H4924.8z"/>
				</g>
			</g>
		</g>
	</g>
</g>
</svg>
