<?xml version="1.0" encoding="utf-8"?>
<!-- Generator: Adobe Illustrator 25.4.1, SVG Export Plug-In . SVG Version: 6.00 Build 0)  -->
<svg version="1.1" id="Layer_1" xmlns="http://www.w3.org/2000/svg" xmlns:xlink="http://www.w3.org/1999/xlink" x="0px" y="0px"
	 viewBox="0 0 25 25" style="enable-background:new 0 0 25 25;" xml:space="preserve">
<style type="text/css">
	.st0{fill:#FFFFFF;}
	.st1{fill:#0077C8;}
</style>
<path class="st0" d="M12.5,25L12.5,25C5.6,25,0,19.4,0,12.5l0,0C0,5.6,5.6,0,12.5,0l0,0C19.4,0,25,5.6,25,12.5l0,0
	C25,19.4,19.4,25,12.5,25z"/>
<desc>Created using Figma</desc>
<g id="Canvas" transform="translate(-4909 -2597)">
	<g id="noun_99709_cc">
		<g id="Vector">
			<g transform="translate(4909 2597)">
				<path id="path0_fill" class="st0" d="M4921.5,2597c-6.9,0-12.5,5.6-12.5,12.5s5.6,12.5,12.5,12.5s12.5-5.6,12.5-12.5
					S4928.4,2597,4921.5,2597z M4928.4,2604.9l-6.9,4.7l-6.9-4.7H4928.4z M4914,2605.6l4.8,3.2l-4.8,4.8V2605.6z M4914.6,2614.2
					l4.9-4.9l1.8,1.2c0.1,0.1,0.2,0.1,0.2,0.1c0.1,0,0.2,0,0.2-0.1l1.7-1.1l5,4.8H4914.6z M4929,2613.6l-4.8-4.8l4.8-3.3V2613.6z"/>
				<polygon class="st1" points="4929,2605.6 4929,2613.6 4924.2,2608.9 				"/>
				<polygon class="st1" points="4918.8,2608.8 4914,2613.6 4914,2605.6 				"/>
				<polygon class="st1" points="4928.4,2604.9 4921.5,2609.6 4914.6,2604.9 				"/>
				<path class="st1" d="M4928.4,2614.2h-13.9l4.9-4.9l1.8,1.2c0.1,0.1,0.2,0.1,0.2,0.1c0.1,0,0.2,0,0.2-0.1l1.7-1.1L4928.4,2614.2z
					"/>
			</g>
		</g>
	</g>
</g>
<path class="st0" d="M20.3,5.8H4.7c-0.8,0-1.5,0.7-1.5,1.5v10.4c0,0.8,0.7,1.5,1.5,1.5h15.6c0.8,0,1.5-0.7,1.5-1.5V7.3
	C21.8,6.5,21.1,5.8,20.3,5.8z M20.3,6.5L12.5,13L4.6,6.5H20.3z M3.9,17.7V7.3c0-0.1,0-0.3,0.1-0.4l6.3,5.2l-6.3,6
	C3.9,18,3.9,17.8,3.9,17.7z M4.6,18.5l6.3-6l1.6,1.4l1.6-1.4l6.3,6H4.6z M21.1,17.8c0,0.2,0,0.3-0.1,0.4l-6.3-6.1L21,6.9
	c0.1,0.1,0.1,0.3,0.1,0.5V17.8z"/>
<path class="st1" d="M21.1,7.4v10.4c0,0.2,0,0.3-0.1,0.4l-6.3-6.1L21,6.9C21.1,7,21.1,7.2,21.1,7.4z"/>
<path class="st1" d="M10.3,12.1l-6.3,6c-0.1-0.1-0.1-0.3-0.1-0.4V7.3c0-0.1,0-0.3,0.1-0.4L10.3,12.1z"/>
<polygon class="st1" points="20.3,6.5 12.5,13 4.6,6.5 "/>
<polygon class="st1" points="20.4,18.5 4.6,18.5 10.9,12.5 12.5,13.9 14.1,12.5 "/>
</svg>
