<?xml version="1.0" encoding="utf-8"?>
<!-- Generator: Adobe Illustrator 25.4.1, SVG Export Plug-In . SVG Version: 6.00 Build 0)  -->
<svg version="1.1" id="Layer_1" xmlns="http://www.w3.org/2000/svg" xmlns:xlink="http://www.w3.org/1999/xlink" x="0px" y="0px"
	 viewBox="0 0 25 25" style="enable-background:new 0 0 25 25;" xml:space="preserve">
<style type="text/css">
	.st0{fill:#FFFFFF;}
	.st1{fill-rule:evenodd;clip-rule:evenodd;fill:#FFFFFF;}
	.st2{fill-rule:evenodd;clip-rule:evenodd;fill:#0077C8;}
	.st3{fill:#0077C8;}
</style>
<path class="st0" d="M12.5,25L12.5,25C5.6,25,0,19.4,0,12.5l0,0C0,5.6,5.6,0,12.5,0l0,0C19.4,0,25,5.6,25,12.5l0,0
	C25,19.4,19.4,25,12.5,25z"/>
<desc>Created using Figma</desc>
<g id="Canvas" transform="translate(-4909 -2705)">
	<g id="noun_376853_cc">
		<g id="Group">
			<g id="Vector">
				<g transform="translate(4909 2705)">
					<path id="path0_fill" class="st1" d="M4924.7,2720.5c-0.1,0.9-0.4,1.8-0.6,2.5c-0.2,0.5-0.4,0.9-0.6,1.2c2-0.6,3.6-1.9,4.4-3.7
						H4924.7z M4919.3,2720.5c0.1,0.8,0.3,1.5,0.6,2.1c0.2,0.6,0.5,1.1,0.8,1.4c0.3,0.3,0.5,0.4,0.8,0.4s0.5-0.1,0.8-0.4
						c0.3-0.3,0.6-0.8,0.8-1.4c0.2-0.6,0.4-1.3,0.6-2.1H4919.3z M4919,2723c-0.3-0.7-0.5-1.6-0.6-2.5h-3.1c0.9,1.8,2.5,3.2,4.4,3.7
						C4919.4,2723.9,4919.1,2723.5,4919,2723z M4928.2,2715.5h-3.4c0.1,0.6,0.1,1.3,0.1,2s-0.1,1.4-0.1,2h3.4c0.2-0.6,0.3-1.3,0.3-2
						S4928.4,2716.1,4928.2,2715.5z M4923.8,2715.5h-4.6c-0.1,0.6-0.1,1.3-0.1,2s0.1,1.4,0.1,2h4.6c0.1-0.6,0.1-1.3,0.1-2
						S4923.9,2716.1,4923.8,2715.5z M4918.2,2715.5h-3.4c-0.2,0.6-0.3,1.3-0.3,2s0.1,1.4,0.3,2h3.4c-0.1-0.6-0.1-1.3-0.1-2
						S4918.1,2716.1,4918.2,2715.5z M4923.4,2710.8c0.2,0.4,0.5,0.8,0.6,1.2c0.3,0.7,0.5,1.6,0.6,2.5h3.1
						C4927,2712.7,4925.4,2711.3,4923.4,2710.8z M4915.2,2714.5h3.1c0.1-0.9,0.4-1.8,0.6-2.5c0.2-0.5,0.4-0.9,0.6-1.2
						C4917.6,2711.3,4916,2712.7,4915.2,2714.5z M4923.1,2712.4c-0.2-0.6-0.5-1.1-0.8-1.4c-0.3-0.3-0.5-0.4-0.8-0.4
						s-0.5,0.1-0.8,0.4c-0.3,0.3-0.6,0.8-0.8,1.4c-0.2,0.6-0.4,1.3-0.6,2.1h4.3C4923.5,2713.7,4923.3,2713,4923.1,2712.4z
						 M4928.2,2715.5h-3.4c0.1,0.6,0.1,1.3,0.1,2s-0.1,1.4-0.1,2h3.4c0.2-0.6,0.3-1.3,0.3-2S4928.4,2716.1,4928.2,2715.5z
						 M4924.7,2714.5h3.1c-0.9-1.8-2.5-3.2-4.4-3.7c0.2,0.4,0.5,0.8,0.6,1.2C4924.3,2712.7,4924.5,2713.6,4924.7,2714.5z M4924,2723
						c-0.2,0.5-0.4,0.9-0.6,1.2c2-0.6,3.6-1.9,4.4-3.7h-3.1C4924.5,2721.4,4924.3,2722.3,4924,2723z M4919.1,2717.5
						c0,0.7,0.1,1.4,0.1,2h4.6c0.1-0.6,0.1-1.3,0.1-2s-0.1-1.4-0.1-2h-4.6C4919.1,2716.1,4919.1,2716.8,4919.1,2717.5z
						 M4923.7,2714.5c-0.1-0.8-0.3-1.5-0.6-2.1c-0.2-0.6-0.5-1.1-0.8-1.4c-0.3-0.3-0.5-0.4-0.8-0.4s-0.5,0.1-0.8,0.4
						c-0.3,0.3-0.6,0.8-0.8,1.4c-0.2,0.6-0.4,1.3-0.6,2.1H4923.7z M4919.3,2720.5c0.1,0.8,0.3,1.5,0.6,2.1c0.2,0.6,0.5,1.1,0.8,1.4
						c0.3,0.3,0.5,0.4,0.8,0.4s0.5-0.1,0.8-0.4c0.3-0.3,0.6-0.8,0.8-1.4c0.2-0.6,0.4-1.3,0.6-2.1H4919.3z M4919,2712
						c0.2-0.5,0.4-0.9,0.6-1.2c-2,0.6-3.6,1.9-4.4,3.7h3.1C4918.5,2713.6,4918.7,2712.7,4919,2712z M4918.3,2720.5h-3.1
						c0.9,1.8,2.5,3.2,4.4,3.7c-0.2-0.4-0.5-0.8-0.6-1.2C4918.7,2722.3,4918.5,2721.4,4918.3,2720.5z M4918.1,2717.5
						c0-0.7,0.1-1.4,0.1-2h-3.4c-0.2,0.6-0.3,1.3-0.3,2s0.1,1.4,0.3,2h3.4C4918.1,2718.9,4918.1,2718.2,4918.1,2717.5z
						 M4930.3,2708.7c-2.3-2.3-5.5-3.7-8.8-3.7s-6.5,1.3-8.8,3.7s-3.7,5.5-3.7,8.8s1.3,6.5,3.7,8.8c2.3,2.3,5.5,3.7,8.8,3.7
						s6.5-1.3,8.8-3.7s3.7-5.5,3.7-8.8S4932.7,2711,4930.3,2708.7z M4921.5,2725.5c-4.4,0-8-3.6-8-8s3.6-8,8-8s8,3.6,8,8
						S4925.9,2725.5,4921.5,2725.5z M4924.9,2717.5c0,0.7-0.1,1.4-0.1,2h3.4c0.2-0.6,0.3-1.3,0.3-2s-0.1-1.4-0.3-2h-3.4
						C4924.9,2716.1,4924.9,2716.8,4924.9,2717.5z M4923.4,2710.8c0.2,0.4,0.5,0.8,0.6,1.2c0.3,0.7,0.5,1.6,0.6,2.5h3.1
						C4927,2712.7,4925.4,2711.3,4923.4,2710.8z M4924,2723c-0.2,0.5-0.4,0.9-0.6,1.2c2-0.6,3.6-1.9,4.4-3.7h-3.1
						C4924.5,2721.4,4924.3,2722.3,4924,2723z M4919.1,2717.5c0,0.7,0.1,1.4,0.1,2h4.6c0.1-0.6,0.1-1.3,0.1-2s-0.1-1.4-0.1-2h-4.6
						C4919.1,2716.1,4919.1,2716.8,4919.1,2717.5z M4923.7,2714.5c-0.1-0.8-0.3-1.5-0.6-2.1c-0.2-0.6-0.5-1.1-0.8-1.4
						c-0.3-0.3-0.5-0.4-0.8-0.4s-0.5,0.1-0.8,0.4c-0.3,0.3-0.6,0.8-0.8,1.4c-0.2,0.6-0.4,1.3-0.6,2.1H4923.7z M4919.3,2720.5
						c0.1,0.8,0.3,1.5,0.6,2.1c0.2,0.6,0.5,1.1,0.8,1.4c0.3,0.3,0.5,0.4,0.8,0.4s0.5-0.1,0.8-0.4c0.3-0.3,0.6-0.8,0.8-1.4
						c0.2-0.6,0.4-1.3,0.6-2.1H4919.3z M4919,2712c0.2-0.5,0.4-0.9,0.6-1.2c-2,0.6-3.6,1.9-4.4,3.7h3.1
						C4918.5,2713.6,4918.7,2712.7,4919,2712z M4918.3,2720.5h-3.1c0.9,1.8,2.5,3.2,4.4,3.7c-0.2-0.4-0.5-0.8-0.6-1.2
						C4918.7,2722.3,4918.5,2721.4,4918.3,2720.5z M4918.1,2717.5c0-0.7,0.1-1.4,0.1-2h-3.4c-0.2,0.6-0.3,1.3-0.3,2s0.1,1.4,0.3,2
						h3.4C4918.1,2718.9,4918.1,2718.2,4918.1,2717.5z"/>
					<path class="st2" d="M4921.5,2709.5c-4.4,0-8,3.6-8,8s3.6,8,8,8s8-3.6,8-8S4925.9,2709.5,4921.5,2709.5z M4927.8,2714.5h-3.1
						c-0.1-0.9-0.4-1.8-0.6-2.5c-0.2-0.5-0.4-0.9-0.6-1.2C4925.4,2711.3,4927,2712.7,4927.8,2714.5z M4923.9,2717.5
						c0,0.7-0.1,1.4-0.1,2h-4.6c-0.1-0.6-0.1-1.3-0.1-2s0.1-1.4,0.1-2h4.6C4923.9,2716.1,4923.9,2716.8,4923.9,2717.5z
						 M4920.7,2710.9c0.3-0.3,0.5-0.4,0.8-0.4s0.5,0.1,0.8,0.4c0.3,0.3,0.6,0.8,0.8,1.4c0.2,0.6,0.4,1.3,0.6,2.1h-4.3
						c0.1-0.8,0.3-1.5,0.6-2.1C4920.1,2711.7,4920.4,2711.2,4920.7,2710.9z M4919.6,2710.8c-0.2,0.4-0.5,0.8-0.6,1.2
						c-0.3,0.7-0.5,1.6-0.6,2.5h-3.1C4916,2712.7,4917.6,2711.3,4919.6,2710.8z M4914.5,2717.5c0-0.7,0.1-1.4,0.3-2h3.4
						c-0.1,0.6-0.1,1.3-0.1,2s0.1,1.4,0.1,2h-3.4C4914.6,2718.9,4914.5,2718.2,4914.5,2717.5z M4915.2,2720.5h3.1
						c0.1,0.9,0.4,1.8,0.6,2.5c0.2,0.5,0.4,0.9,0.6,1.2C4917.6,2723.7,4916,2722.3,4915.2,2720.5z M4922.3,2724.1
						c-0.3,0.3-0.5,0.4-0.8,0.4s-0.5-0.1-0.8-0.4c-0.3-0.3-0.6-0.8-0.8-1.4c-0.2-0.6-0.4-1.3-0.6-2.1h4.3c-0.1,0.8-0.3,1.5-0.6,2.1
						C4922.9,2723.3,4922.6,2723.8,4922.3,2724.1z M4923.4,2724.2c0.2-0.4,0.5-0.8,0.6-1.2c0.3-0.7,0.5-1.6,0.6-2.5h3.1
						C4927,2722.3,4925.4,2723.7,4923.4,2724.2z M4924.8,2719.5c0.1-0.6,0.1-1.3,0.1-2s-0.1-1.4-0.1-2h3.4c0.2,0.6,0.3,1.3,0.3,2
						s-0.1,1.4-0.3,2H4924.8z"/>
				</g>
			</g>
		</g>
	</g>
</g>
<path class="st3" d="M19.6,12.3c-0.5-9-13.8-9-14.2,0C5.1,21.9,19.9,21.9,19.6,12.3z M13.6,5.9c1.5,0.2,2.9,1,3.9,2.1
	c-0.3,0.4-0.7,0.7-1.1,1C15.7,7.7,14.7,6.6,13.6,5.9C13.6,5.9,13.6,5.9,13.6,5.9z M12.2,12.3h-4c0-0.9,0.2-1.8,0.6-2.7
	c1,0.6,2.2,1,3.4,1V12.3z M12.2,12.8v1.7c-1.2,0-2.3,0.4-3.4,1c-0.4-0.8-0.6-1.8-0.6-2.7H12.2z M12.8,12.8h4c0,0.9-0.2,1.9-0.6,2.7
	c-1-0.6-2.2-0.9-3.4-1V12.8z M12.8,12.3v-1.7c1.2,0,2.3-0.4,3.4-1c0.4,0.8,0.6,1.7,0.6,2.7H12.8z M15.9,9.2c-1,0.6-2,0.9-3.2,1V6
	C14.1,6.7,15.3,7.8,15.9,9.2z M12.2,10.2c-1.1,0-2.2-0.4-3.2-1c0.7-1.4,1.8-2.5,3.2-3.3V10.2z M7.7,7.8c1-1,2.3-1.7,3.7-1.9
	C10.2,6.6,9.3,7.7,8.7,9C8.3,8.7,7.9,8.4,7.6,8C7.6,7.9,7.7,7.9,7.7,7.8z M7.3,8.3C7.6,8.7,8,9,8.5,9.3c-0.4,0.9-0.6,1.9-0.7,2.9h-2
	C5.9,10.8,6.4,9.4,7.3,8.3z M5.8,12.8h2c0,1,0.3,2,0.7,3c-0.4,0.3-0.8,0.6-1.2,1C6.4,15.6,5.9,14.2,5.8,12.8z M11.1,19.1
	c-1.3-0.3-2.6-1-3.5-2c0.3-0.4,0.7-0.7,1.1-1c0.6,1.3,1.6,2.3,2.8,3.1C11.3,19.2,11.2,19.1,11.1,19.1z M9.1,15.8c1-0.6,2-0.9,3.2-1
	v4.2C10.9,18.4,9.8,17.2,9.1,15.8z M12.8,14.9c1.1,0,2.2,0.4,3.2,1c-0.7,1.4-1.8,2.5-3.2,3.2V14.9z M16.9,17.6
	c-1,0.9-2.2,1.4-3.4,1.6c1.2-0.7,2.2-1.8,2.8-3.1c0.4,0.3,0.8,0.6,1.1,1C17.3,17.2,17.1,17.4,16.9,17.6z M17.7,16.7
	c-0.4-0.4-0.8-0.7-1.2-1c0.4-0.9,0.6-1.9,0.7-3h2C19.1,14.2,18.6,15.6,17.7,16.7z M17.2,12.3c0-1-0.2-2-0.7-2.9
	c0.4-0.3,0.8-0.6,1.2-1c0.9,1.1,1.4,2.5,1.5,3.9H17.2z"/>
</svg>
