<?xml version="1.0" encoding="utf-8"?>
<!-- Generator: Adobe Illustrator 25.4.1, SVG Export Plug-In . SVG Version: 6.00 Build 0)  -->
<svg version="1.1" id="Layer_1" xmlns="http://www.w3.org/2000/svg" xmlns:xlink="http://www.w3.org/1999/xlink" x="0px" y="0px"
	 viewBox="0 0 25 25" style="enable-background:new 0 0 25 25;" xml:space="preserve">
<style type="text/css">
	.st0{fill:#FFFFFF;}
	.st1{fill:#0077C8;}
</style>
<path class="st0" d="M12.5,25L12.5,25C5.6,25,0,19.4,0,12.5l0,0C0,5.6,5.6,0,12.5,0l0,0C19.4,0,25,5.6,25,12.5l0,0
	C25,19.4,19.4,25,12.5,25z"/>
<desc>Created using Figma</desc>
<g id="Canvas" transform="translate(-4909 -2651)">
	<g id="noun_555068_cc">
		<g id="Vector">
			<g transform="translate(4909 2651)">
				<path id="path0_fill" class="st0" d="M4921.5,2651c-6.9,0-12.5,5.6-12.5,12.5s5.6,12.5,12.5,12.5s12.5-5.6,12.5-12.5
					S4928.4,2651,4921.5,2651z M4923.8,2669.8c-4.7-0.3-8.4-4.1-8.5-8.9c0-1.7,1.1-3.1,2.6-3.6c1.1,0.8,1.9,2.1,2.1,3.6
					c-0.5,0.7-1.2,1.2-2.1,1.6c0.9,2,2.6,3.7,4.7,4.6c0.3-0.8,0.9-1.5,1.6-2l0,0c1.5,0.1,2.8,0.9,3.6,2.1
					C4927.1,2668.7,4925.6,2669.7,4923.8,2669.8z"/>
				<path class="st1" d="M4927.7,2667.2c-0.7,1.5-2.2,2.6-3.9,2.6c-4.7-0.3-8.4-4.1-8.5-8.9c0-1.7,1.1-3.1,2.6-3.6
					c1.1,0.8,1.9,2.1,2.1,3.6c-0.5,0.7-1.2,1.2-2.1,1.6c0.9,2,2.6,3.7,4.7,4.6c0.3-0.8,0.9-1.5,1.6-2l0,0
					C4925.6,2665.2,4926.9,2666,4927.7,2667.2z"/>
			</g>
		</g>
	</g>
</g>
<path class="st1" d="M18.4,16.1l-2.6-2c-0.3-0.3-0.8-0.2-1.1,0.1l-0.4,0.5c0,0-0.4,0.4-0.8,0.1c0,0-2.2-1.4-4.1-4.9
	c0,0-0.2-0.6,0.4-0.8l0.6-0.3c0.3-0.2,0.5-0.6,0.3-0.9L9.6,5.2C9.5,4.8,9,4.6,8.6,4.8c0,0-1.9,1.3-2.1,1.7c-0.5,1.3,0,2.6,0.4,3.8
	c0.8,2.1,2.1,4.1,3.8,5.7c0.6,0.5,1.3,1.1,2,1.5c1.5,1.1,3.9,2.2,5.4,0.4l0.4-0.5C18.8,16.8,18.7,16.3,18.4,16.1z"/>
</svg>
