<?xml version="1.0" encoding="utf-8"?>
<!-- Generator: Adobe Illustrator 25.4.1, SVG Export Plug-In . SVG Version: 6.00 Build 0)  -->
<svg version="1.1" id="Layer_1" xmlns="http://www.w3.org/2000/svg" xmlns:xlink="http://www.w3.org/1999/xlink" x="0px" y="0px"
	 viewBox="0 0 25 25" style="enable-background:new 0 0 25 25;" xml:space="preserve">
<style type="text/css">
	.st0{fill:#FFFFFF;}
	.st1{fill:#0077C8;}
</style>
<desc>Created using Figma</desc>
<g id="Canvas" transform="translate(-4909 -2758)">
	<g id="noun_376938_cc">
		<g id="Group_00000004504945901528115170000015633274513583349638_">
			<g id="Group_00000161616685294238018550000010416866733406801568_">
				<g id="Group">
					<g id="Vector">
						<g transform="translate(4909 2758)">
							<path id="path0_fill" class="st0" d="M4921.5,2768c-0.6,0-1,0.4-1,1s0.4,1,1,1s1-0.4,1-1S4922.1,2768,4921.5,2768z
								 M4921.5,2768c-0.6,0-1,0.4-1,1s0.4,1,1,1s1-0.4,1-1S4922.1,2768,4921.5,2768z M4921.5,2765c-2.2,0-4,1.8-4,4
								c0,2.9,2.8,6,4,7.2c1.2-1.2,4-4.3,4-7.2C4925.5,2766.8,4923.7,2765,4921.5,2765z M4921.5,2771c-1.1,0-2-0.9-2-2s0.9-2,2-2
								s2,0.9,2,2S4922.6,2771,4921.5,2771z M4921.5,2768c-0.6,0-1,0.4-1,1s0.4,1,1,1s1-0.4,1-1S4922.1,2768,4921.5,2768z
								 M4921.5,2765c-2.2,0-4,1.8-4,4c0,2.9,2.8,6,4,7.2c1.2-1.2,4-4.3,4-7.2C4925.5,2766.8,4923.7,2765,4921.5,2765z M4921.5,2771
								c-1.1,0-2-0.9-2-2s0.9-2,2-2s2,0.9,2,2S4922.6,2771,4921.5,2771z M4921.5,2768c-0.6,0-1,0.4-1,1s0.4,1,1,1s1-0.4,1-1
								S4922.1,2768,4921.5,2768z M4930.3,2761.7c-2.3-2.3-5.5-3.7-8.8-3.7s-6.5,1.3-8.8,3.7s-3.7,5.5-3.7,8.8s1.3,6.5,3.7,8.8
								c2.3,2.3,5.5,3.7,8.8,3.7s6.5-1.3,8.8-3.7s3.7-5.5,3.7-8.8S4932.7,2764,4930.3,2761.7z M4921.9,2777.4l-0.4,0.4l-0.4-0.4
								c-1-1-4.6-4.5-4.6-8.4c0-2.8,2.2-5,5-5s5,2.2,5,5C4926.5,2772.8,4922.9,2776.4,4921.9,2777.4z M4921.5,2765c-2.2,0-4,1.8-4,4
								c0,2.9,2.8,6,4,7.2c1.2-1.2,4-4.3,4-7.2C4925.5,2766.8,4923.7,2765,4921.5,2765z M4921.5,2771c-1.1,0-2-0.9-2-2s0.9-2,2-2
								s2,0.9,2,2S4922.6,2771,4921.5,2771z M4921.5,2768c-0.6,0-1,0.4-1,1s0.4,1,1,1s1-0.4,1-1S4922.1,2768,4921.5,2768z
								 M4921.5,2768c-0.6,0-1,0.4-1,1s0.4,1,1,1s1-0.4,1-1S4922.1,2768,4921.5,2768z M4921.5,2768c-0.6,0-1,0.4-1,1s0.4,1,1,1
								s1-0.4,1-1S4922.1,2768,4921.5,2768z M4921.5,2765c-2.2,0-4,1.8-4,4c0,2.9,2.8,6,4,7.2c1.2-1.2,4-4.3,4-7.2
								C4925.5,2766.8,4923.7,2765,4921.5,2765z M4921.5,2771c-1.1,0-2-0.9-2-2s0.9-2,2-2s2,0.9,2,2S4922.6,2771,4921.5,2771z
								 M4921.5,2768c-0.6,0-1,0.4-1,1s0.4,1,1,1s1-0.4,1-1S4922.1,2768,4921.5,2768z M4921.5,2768c-0.6,0-1,0.4-1,1s0.4,1,1,1
								s1-0.4,1-1S4922.1,2768,4921.5,2768z M4921.5,2768c-0.6,0-1,0.4-1,1s0.4,1,1,1s1-0.4,1-1S4922.1,2768,4921.5,2768z
								 M4921.5,2765c-2.2,0-4,1.8-4,4c0,2.9,2.8,6,4,7.2c1.2-1.2,4-4.3,4-7.2C4925.5,2766.8,4923.7,2765,4921.5,2765z M4921.5,2771
								c-1.1,0-2-0.9-2-2s0.9-2,2-2s2,0.9,2,2S4922.6,2771,4921.5,2771z M4921.5,2768c-0.6,0-1,0.4-1,1s0.4,1,1,1s1-0.4,1-1
								S4922.1,2768,4921.5,2768z M4921.5,2768c-0.6,0-1,0.4-1,1s0.4,1,1,1s1-0.4,1-1S4922.1,2768,4921.5,2768z M4921.5,2768
								c-0.6,0-1,0.4-1,1s0.4,1,1,1s1-0.4,1-1S4922.1,2768,4921.5,2768z"/>
							<path class="st1" d="M4921.5,2764c-2.8,0-5,2.2-5,5c0,3.8,3.6,7.4,4.6,8.4l0.4,0.4l0.4-0.4c1-1,4.6-4.5,4.6-8.4
								C4926.5,2766.2,4924.3,2764,4921.5,2764z M4921.5,2776.2c-1.2-1.2-4-4.3-4-7.2c0-2.2,1.8-4,4-4s4,1.8,4,4
								C4925.5,2771.9,4922.7,2775,4921.5,2776.2z"/>
							<path class="st1" d="M4921.5,2767c-1.1,0-2,0.9-2,2s0.9,2,2,2s2-0.9,2-2S4922.6,2767,4921.5,2767z M4921.5,2770
								c-0.6,0-1-0.4-1-1s0.4-1,1-1s1,0.4,1,1S4922.1,2770,4921.5,2770z"/>
						</g>
					</g>
				</g>
			</g>
		</g>
	</g>
</g>
<path class="st0" d="M12.5,25L12.5,25C5.6,25,0,19.4,0,12.5l0,0C0,5.6,5.6,0,12.5,0l0,0C19.4,0,25,5.6,25,12.5l0,0
	C25,19.4,19.4,25,12.5,25z"/>
<path class="st1" d="M12.5,5.5c-2.9,0-5.2,2.3-5.2,5.2s5.2,8.8,5.2,8.8s5.2-5.9,5.2-8.8S15.4,5.5,12.5,5.5z M12.5,12
	c-1.2,0-2.1-0.9-2.1-2.1s0.9-2.1,2.1-2.1s2.1,0.9,2.1,2.1S13.7,12,12.5,12z"/>
</svg>
