<?xml version="1.0" encoding="utf-8"?>
<!-- Generator: Adobe Illustrator 25.4.1, SVG Export Plug-In . SVG Version: 6.00 Build 0)  -->
<svg version="1.1" id="Layer_1" xmlns="http://www.w3.org/2000/svg" xmlns:xlink="http://www.w3.org/1999/xlink" x="0px" y="0px"
	 viewBox="0 0 8 12" style="enable-background:new 0 0 8 12;" xml:space="preserve">
<style type="text/css">
	.st0{fill:#FFFFFF;}
</style>
<desc>Created using Figma</desc>
<g id="Canvas" transform="translate(-5238 -2656)">
	<g id="noun_715033_cc">
		<g id="Group">
			<g id="Vector">
				<g transform="translate(5239 2657)">
					<path id="path0_stroke" class="st0" d="M5238.8,2666.8c-0.1,0.1-0.1,0.2,0,0.4c0.1,0.1,0.2,0.1,0.4,0L5238.8,2666.8z
						 M5245,2662l0.2,0.2c0.1,0,0.1-0.1,0.1-0.2s0-0.1-0.1-0.2L5245,2662z M5239.2,2656.8c-0.1-0.1-0.3-0.1-0.4,0s-0.1,0.3,0,0.4
						L5239.2,2656.8z M5239.2,2667.2l6-5l-0.3-0.4l-6,5L5239.2,2667.2z M5245.2,2661.8l-6-5l-0.3,0.4l6,5L5245.2,2661.8z"/>
				</g>
			</g>
		</g>
	</g>
</g>
<g>
	<path class="st0" d="M1.4,11.7c-0.1,0-0.3,0-0.4-0.1c-0.2-0.2-0.2-0.5,0-0.7l4.9-4.9L1.2,1.1C1,1,1,0.6,1.2,0.4s0.5-0.2,0.7,0
		L7,5.6c0.1,0.1,0.1,0.2,0.1,0.4S7.1,6.2,7,6.3l-5.3,5.3C1.6,11.7,1.5,11.7,1.4,11.7z"/>
</g>
</svg>
