<svg id="Layer_1" data-name="Layer 1" xmlns="http://www.w3.org/2000/svg" viewBox="0 0 185.36 126.59"><defs><style>.cls-1,.cls-2{fill:#fff;}.cls-2{font-size:13px;font-family:UniversLTStd-Bold, Univers LT Std;font-weight:700;letter-spacing:-0.01em;}.cls-3{letter-spacing:-0.04em;}.cls-4{letter-spacing:-0.03em;}.cls-5{letter-spacing:-0.09em;}</style></defs><rect class="cls-1" x="28.52" y="79.29" width="128.76" height="0.83"/><path class="cls-1" d="M35,43.72v7a2.77,2.77,0,0,0,1.76-.43,3,3,0,0,0,.38-1.89V46c0-1.06-.11-1.71-.34-1.93a3,3,0,0,0-1.8-.39m0-9.42v5.55h.65q1,0,1.23-.48a7.83,7.83,0,0,0,.26-2.69A4.28,4.28,0,0,0,36.92,35a1,1,0,0,0-.57-.59A4.77,4.77,0,0,0,35,34.3M28.51,30H35a17,17,0,0,1,4.65.48,4.68,4.68,0,0,1,2.55,1.93,8.79,8.79,0,0,1,1,4.7,5,5,0,0,1-.69,3.05,4.78,4.78,0,0,1-2.7,1.33,4.84,4.84,0,0,1,3,1.68,6.54,6.54,0,0,1,.8,3.61V49.1A9,9,0,0,1,43,52.84a3.13,3.13,0,0,1-1.84,1.67A19.33,19.33,0,0,1,36,55H28.51V30"/><path class="cls-1" d="M51.49,34.52l-.24,2.69a5.15,5.15,0,0,1,4.31-3.1v7.17a7,7,0,0,0-2.9.48,1.91,1.91,0,0,0-1,1.29,23.81,23.81,0,0,0-.18,3.81V55H45.24V34.52h6.25"/><rect class="cls-1" x="56.9" y="36.68" width="6.42" height="18.27"/><path class="cls-1" d="M72.94,39.94a5.87,5.87,0,0,0-.16-1.79.68.68,0,0,0-.71-.39.79.79,0,0,0-.76.44,4.45,4.45,0,0,0-.22,1.74V46.8a5.82,5.82,0,0,0,.17,1.78A.67.67,0,0,0,72,49a.76.76,0,0,0,.8-.49,8.32,8.32,0,0,0,.18-2.23Zm6.25-5.42V50.26a37.26,37.26,0,0,1-.14,4.12,4.11,4.11,0,0,1-1,2,5.59,5.59,0,0,1-2.49,1.59,12.68,12.68,0,0,1-4,.54,9.7,9.7,0,0,1-4.78-1c-1.21-.67-1.83-2-1.87-4h6c0,.88.33,1.32,1,1.32a1,1,0,0,0,.95-.41,4,4,0,0,0,.24-1.74V51.15a6,6,0,0,1-1.69,1.11,4.8,4.8,0,0,1-1.86.38A5.14,5.14,0,0,1,66.73,52a3.46,3.46,0,0,1-1.49-1.77,9.57,9.57,0,0,1-.4-3.14V39.6a6.67,6.67,0,0,1,1-4.2,3.89,3.89,0,0,1,3.19-1.28,4.62,4.62,0,0,1,2.14.49,4.93,4.93,0,0,1,1.72,1.46l.47-1.55h5.78"/><path class="cls-1" d="M87.09,30v5.61a5.78,5.78,0,0,1,1.74-1.13,5.46,5.46,0,0,1,2-.37A4.58,4.58,0,0,1,93.6,35,3.34,3.34,0,0,1,95,36.87a20.56,20.56,0,0,1,.25,4V55H89V40.57a9,9,0,0,0-.17-2.3.75.75,0,0,0-.78-.51.75.75,0,0,0-.76.53,7.05,7.05,0,0,0-.2,2.08V55H80.84V30h6.25"/><path class="cls-1" d="M103.7,31.34v3.18h1.62v4.17H103.7V49.17a6.16,6.16,0,0,0,.2,2.25c.14.16.71.23,1.71.23V55h-2.5a17.81,17.81,0,0,1-3-.17,3.19,3.19,0,0,1-1.6-.82,2.74,2.74,0,0,1-.86-1.46,26.59,26.59,0,0,1-.17-3.88V38.69H96.12V34.52h1.33V31.34h6.25"/><path class="cls-1" d="M127.76,34.52,125.25,55h-6.74Q118,51.2,117.19,45c-.17,1.82-.41,3.65-.7,5.47L115.82,55h-6.74L106.4,34.52h5.32q.11.81,1.42,11.75.14-1.17,1.38-11.75h5.18L121,46.27q.35-5.18,1.44-11.75h5.36"/><path class="cls-1" d="M136.25,45.19A4.68,4.68,0,0,0,134.52,47a7.21,7.21,0,0,0-.24,2.12,6.11,6.11,0,0,0,.21,2,.8.8,0,0,0,.82.46.76.76,0,0,0,.76-.35,5.81,5.81,0,0,0,.18-1.9Zm-2-2.8h-5.85V41a9.68,9.68,0,0,1,.55-3.65,5.06,5.06,0,0,1,2.2-2.27,10.28,10.28,0,0,1,9.07.13A4.39,4.39,0,0,1,142.18,38a42.46,42.46,0,0,1,.32,6.69V55h-6.08V53.09A4,4,0,0,1,135,54.74a4,4,0,0,1-2.15.56,5.28,5.28,0,0,1-3-.92c-.91-.61-1.37-2-1.37-4V48.69a4.9,4.9,0,0,1,.74-3.14,10.09,10.09,0,0,1,3.58-1.94c2.05-.8,3.14-1.34,3.28-1.62a4.06,4.06,0,0,0,.22-1.68,5.52,5.52,0,0,0-.24-2.06.81.81,0,0,0-.79-.49c-.42,0-.68.14-.78.41a7.71,7.71,0,0,0-.16,2.1v2.12"/><path class="cls-1" d="M157.23,34.52,155.46,49.3c-.29,2.36-.52,4-.71,4.81a5,5,0,0,1-.95,2.12A3.73,3.73,0,0,1,152,57.45a12.87,12.87,0,0,1-3.75.4h-3.76v-3.3a7,7,0,0,0,1.86-.15.62.62,0,0,0,.41-.66q0-.24-.39-2.13L143,34.52h5.6l2.07,13.86,1-13.86h5.58"/><polygon class="cls-1" points="64.23 57.82 28.53 57.82 28.53 56.44 63.31 56.44 64.23 57.82"/><polygon class="cls-1" points="142.47 57.82 79.81 57.82 80.74 56.44 142.47 56.44 142.47 57.82"/><path class="cls-1" d="M63.4,31.76a3.29,3.29,0,1,1-3.28-3.28,3.28,3.28,0,0,1,3.28,3.28"/><path class="cls-1" d="M56,31.25l-12.34.51L56,32.28a3.87,3.87,0,0,1,0-.48,3.31,3.31,0,0,1,0-.55m1.6-2.76-9.1-8.37,8.36,9.1a3.66,3.66,0,0,1,.74-.73m6.65,2.76a3.31,3.31,0,0,1,.05.55c0,.16,0,.33,0,.48l12.34-.52Zm-.83-2,8.36-9.1-9.1,8.36a4.32,4.32,0,0,1,.74.74m-2.76-1.58-.52-12.35-.52,12.34a4.36,4.36,0,0,1,.51,0,3.08,3.08,0,0,1,.53,0"/><rect class="cls-1" x="28.53" y="60.72" width="3.13" height="10.09"/><polygon class="cls-1" points="37.41 70.81 37.41 60.72 41.63 60.72 45.6 67.71 45.64 67.71 45.64 60.72 48.56 60.72 48.56 70.81 44.44 70.81 40.37 63.44 40.32 63.44 40.32 70.81 37.41 70.81"/><path class="cls-1" d="M58.35,71c-3.87,0-4.59-1.53-4.43-3.28h3.13c0,1,.06,1.77,1.78,1.77,1.05,0,1.57-.46,1.57-1.15,0-1.81-6.29-1.92-6.29-4.92,0-1.59,1.12-2.84,4.92-2.84,3,0,4.56.92,4.35,3h-3c0-.76-.19-1.52-1.45-1.52-1,0-1.62.37-1.62,1.07,0,1.91,6.29,1.75,6.29,4.92,0,2.61-2.83,2.92-5.21,2.92"/><path class="cls-1" d="M79,60.72v7.16c0,1.51-1.26,3.1-5.07,3.1-3.44,0-5.09-1.2-5.09-3.1V60.72H72v7c0,1.24.79,1.73,1.93,1.73,1.37,0,2-.61,2-1.73v-7H79"/><path class="cls-1" d="M87.71,65.08H89.1a1.42,1.42,0,0,0,1.59-1.47c0-1-.6-1.33-1.59-1.33H87.71Zm0,5.73H84.59V60.73h5.77c2.13,0,3.49.92,3.49,2.63,0,1.29-.74,2.25-2.76,2.48v0c.67,0,2.7.16,2.7,2a9.48,9.48,0,0,0,.35,3h-3a3.18,3.18,0,0,1-.34-2c0-1.2.17-2.23-2.23-2.23h-.81v4.18"/><path class="cls-1" d="M104.14,62.67h0L102.67,67h3Zm-6,8.14,4.14-10.09h4.12l4.05,10.09h-3.29l-.83-2.23h-4.26l-.85,2.23Z"/><polygon class="cls-1" points="115.02 70.81 115.02 60.72 119.24 60.72 123.22 67.71 123.26 67.71 123.26 60.72 126.17 60.72 126.17 70.81 122.06 70.81 117.98 63.44 117.94 63.44 117.94 70.81 115.02 70.81"/><path class="cls-1" d="M131.76,65.76c0-2.66,0-5.2,5.16-5.2,3.18,0,4.47,1.19,4.34,3.35H138.2c0-1.34-.35-1.84-1.28-1.84-1.76,0-2,1.11-2,3.69s.23,3.71,2,3.71c1.44,0,1.38-1.25,1.42-2h3.09c0,2.69-1.6,3.56-4.51,3.56-5.16,0-5.16-2.57-5.16-5.22"/><polygon class="cls-1" points="146.51 70.81 146.51 60.72 154.67 60.72 154.67 62.28 149.64 62.28 149.64 64.77 154.28 64.77 154.28 66.31 149.64 66.31 149.64 69.26 154.84 69.26 154.84 70.81 146.51 70.81"/><path class="cls-1" d="M160,37h.27c.32,0,.58-.11.58-.36s-.17-.38-.53-.38a1.17,1.17,0,0,0-.32,0Zm0,1.4h-.58V35.86a6.61,6.61,0,0,1,1-.08,1.34,1.34,0,0,1,.85.2.63.63,0,0,1,.26.53.63.63,0,0,1-.51.59v0c.24.08.36.27.43.61a2.24,2.24,0,0,0,.19.61H161a2.48,2.48,0,0,1-.2-.61c0-.26-.2-.38-.51-.38H160Zm-1.54-1.3a1.94,1.94,0,0,0,1.94,2,1.9,1.9,0,0,0,1.9-2,1.92,1.92,0,1,0-3.84,0m4.48,0a2.56,2.56,0,1,1-2.54-2.48,2.51,2.51,0,0,1,2.54,2.48"/><text class="cls-2" transform="matrix(0.98, 0, -0.17, 0.98, 11.93, 97.88)">The Geo<tspan class="cls-3" x="51.1" y="0">r</tspan><tspan class="cls-4" x="55.7" y="0">g</tspan><tspan x="63.26" y="0">e Collins</tspan><tspan class="cls-5" x="114.83" y="0"> </tspan><tspan class="cls-4" x="117.27" y="0">Ag</tspan><tspan x="133.82" y="0">ency</tspan></text></svg>