<?xml version="1.0" encoding="utf-8"?>
<!-- Generator: Adobe Illustrator 25.4.1, SVG Export Plug-In . SVG Version: 6.00 Build 0)  -->
<svg version="1.1" id="Layer_1" xmlns="http://www.w3.org/2000/svg" xmlns:xlink="http://www.w3.org/1999/xlink" x="0px" y="0px"
	 viewBox="0 0 185.4 126.6" style="enable-background:new 0 0 185.4 126.6;" xml:space="preserve">
<style type="text/css">
	.st0{fill:#FFFFFF;}
	.st1{enable-background:new    ;}
</style>
<rect x="28.5" y="79.3" class="st0" width="128.8" height="0.8"/>
<path class="st0" d="M35,43.7v7c0.6,0.1,1.2-0.1,1.8-0.4c0.3-0.6,0.5-1.2,0.4-1.9V46c0-1.1-0.1-1.7-0.3-1.9
	C36.3,43.8,35.6,43.6,35,43.7 M35,34.3v5.5h0.7c0.7,0,1.1-0.2,1.2-0.5c0.2-0.9,0.3-1.8,0.3-2.7c0-0.6,0-1.1-0.2-1.6
	c-0.1-0.3-0.3-0.5-0.6-0.6C35.9,34.3,35.5,34.3,35,34.3 M28.5,30H35c1.6-0.1,3.1,0.1,4.7,0.5c1.1,0.3,2,1,2.5,1.9
	c0.8,1.4,1.1,3.1,1,4.7c0.1,1.1-0.1,2.1-0.7,3c-0.7,0.7-1.7,1.2-2.7,1.3c1.2,0.2,2.2,0.8,3,1.7c0.6,1.1,0.9,2.4,0.8,3.6v2.3
	c0.1,1.3-0.1,2.6-0.6,3.7c-0.4,0.8-1,1.4-1.8,1.7c-1.7,0.4-3.4,0.6-5.2,0.5h-7.5V30"/>
<path class="st0" d="M51.5,34.5l-0.2,2.7c0.8-1.8,2.4-2.9,4.3-3.1v7.2c-1,0-2,0.1-2.9,0.5c-0.5,0.3-0.9,0.7-1,1.3
	c-0.2,1.3-0.2,2.5-0.2,3.8V55h-6.2V34.5H51.5"/>
<rect x="56.9" y="36.7" class="st0" width="6.4" height="18.3"/>
<path class="st0" d="M72.9,39.9c0-0.6,0-1.2-0.2-1.8c-0.1-0.3-0.4-0.4-0.7-0.4c-0.3,0-0.6,0.2-0.8,0.4c-0.2,0.6-0.3,1.2-0.2,1.7v6.9
	c0,0.6,0,1.2,0.2,1.8c0.1,0.3,0.4,0.5,0.7,0.4c0.3,0,0.7-0.2,0.8-0.5C73,47.8,73,47,73,46.3L72.9,39.9z M79.2,34.5v15.7
	c0,1.4,0,2.8-0.1,4.1c-0.1,0.7-0.5,1.4-1,2c-0.7,0.7-1.5,1.3-2.5,1.6c-1.3,0.4-2.6,0.6-4,0.5c-1.7,0.1-3.3-0.3-4.8-1
	c-1.2-0.7-1.8-2-1.9-4h6c0,0.9,0.3,1.3,1,1.3c0.4,0.1,0.7-0.1,0.9-0.4c0.2-0.6,0.3-1.1,0.2-1.7v-1.5c-0.5,0.5-1.1,0.8-1.7,1.1
	c-0.6,0.2-1.2,0.4-1.9,0.4c-1,0.1-2-0.2-2.8-0.6c-0.7-0.4-1.2-1-1.5-1.8c-0.3-1-0.4-2.1-0.4-3.1v-7.5c-0.1-1.5,0.2-2.9,1-4.2
	c0.8-0.9,2-1.4,3.2-1.3c0.7,0,1.5,0.2,2.1,0.5c0.7,0.3,1.3,0.8,1.7,1.5l0.5-1.5L79.2,34.5"/>
<path class="st0" d="M87.1,30v5.6c0.5-0.5,1.1-0.9,1.7-1.1c0.6-0.2,1.3-0.4,2-0.4c1,0,2,0.3,2.8,0.9c0.7,0.4,1.2,1.1,1.4,1.9
	c0.2,1.3,0.3,2.7,0.2,4V55H89V40.6c0-0.8,0-1.5-0.2-2.3c-0.1-0.3-0.4-0.5-0.8-0.5c-0.3,0-0.7,0.2-0.8,0.5c-0.2,0.7-0.2,1.4-0.2,2.1
	V55h-6.3V30H87.1"/>
<path class="st0" d="M103.7,31.3v3.2h1.6v4.2h-1.6v10.5c-0.1,0.8,0,1.5,0.2,2.2c0.1,0.2,0.7,0.2,1.7,0.2V55h-2.5c-1,0-2,0-3-0.2
	c-0.6-0.1-1.2-0.4-1.6-0.8c-0.4-0.4-0.7-0.9-0.9-1.5c-0.2-1.3-0.2-2.6-0.2-3.9v-10h-1.4v-4.2h1.3v-3.2H103.7"/>
<path class="st0" d="M127.8,34.5L125.2,55h-6.7c-0.3-2.5-0.8-5.9-1.3-10c-0.2,1.8-0.4,3.7-0.7,5.5l-0.7,4.5h-6.7l-2.7-20.5h5.3
	c0.1,0.5,0.5,4.5,1.4,11.8c0.1-0.8,0.6-4.7,1.4-11.8h5.2l1.3,11.8c0.2-3.5,0.7-7.4,1.4-11.8H127.8"/>
<path class="st0" d="M136.2,45.2c-0.7,0.4-1.3,1.1-1.7,1.8c-0.2,0.7-0.3,1.4-0.2,2.1c0,0.7,0,1.3,0.2,2c0.1,0.3,0.5,0.5,0.8,0.5
	c0.3,0,0.6-0.1,0.8-0.3c0.2-0.6,0.2-1.3,0.2-1.9V45.2z M134.2,42.4h-5.9V41c-0.1-1.2,0.1-2.5,0.6-3.7c0.5-1,1.2-1.8,2.2-2.3
	c2.9-1.4,6.2-1.3,9.1,0.1c1,0.6,1.7,1.6,2,2.8c0.3,2.2,0.4,4.5,0.3,6.7V55h-6.1v-1.9c-0.3,0.7-0.8,1.2-1.4,1.7
	c-0.6,0.4-1.4,0.6-2.1,0.6c-1.1,0-2.1-0.3-3-0.9c-0.9-0.6-1.4-2-1.4-4v-1.7c-0.1-1.1,0.1-2.2,0.7-3.1c1-0.9,2.3-1.5,3.6-1.9
	c2.1-0.8,3.1-1.3,3.3-1.6c0.2-0.5,0.3-1.1,0.2-1.7c0.1-0.7,0-1.4-0.2-2.1c-0.1-0.3-0.4-0.5-0.8-0.5c-0.4,0-0.7,0.1-0.8,0.4
	c-0.1,0.7-0.2,1.4-0.2,2.1L134.2,42.4"/>
<path class="st0" d="M157.2,34.5l-1.8,14.8c-0.3,2.4-0.5,4-0.7,4.8c-0.1,0.8-0.5,1.5-0.9,2.1c-0.5,0.6-1.1,1-1.8,1.2
	c-1.2,0.3-2.5,0.5-3.8,0.4h-3.8v-3.3c0.6,0,1.2,0,1.9-0.2c0.3-0.1,0.4-0.4,0.4-0.7c0-0.2-0.1-0.9-0.4-2.1L143,34.5h5.6l2.1,13.9
	l1-13.9H157.2"/>
<polygon class="st0" points="64.2,57.8 28.5,57.8 28.5,56.4 63.3,56.4 "/>
<polygon class="st0" points="142.5,57.8 79.8,57.8 80.7,56.4 142.5,56.4 "/>
<path class="st0" d="M63.4,31.8c0,1.8-1.5,3.3-3.3,3.3c-1.8,0-3.3-1.5-3.3-3.3c0-1.8,1.5-3.3,3.3-3.3c0,0,0,0,0,0
	C61.9,28.5,63.4,29.9,63.4,31.8"/>
<path class="st0" d="M56,31.2l-12.3,0.5L56,32.3c0-0.2,0-0.3,0-0.5C56,31.6,56,31.4,56,31.2 M57.6,28.5l-9.1-8.4l8.4,9.1
	C57.1,28.9,57.3,28.7,57.6,28.5 M64.2,31.2c0,0.2,0,0.4,0.1,0.5c0,0.2,0,0.3,0,0.5l12.3-0.5L64.2,31.2z M63.4,29.2l8.4-9.1l-9.1,8.4
	C63,28.7,63.2,29,63.4,29.2 M60.7,27.7l-0.5-12.4l-0.5,12.3c0.2,0,0.3,0,0.5,0C60.3,27.6,60.5,27.6,60.7,27.7"/>
<rect x="28.5" y="60.7" class="st0" width="3.1" height="10.1"/>
<polygon class="st0" points="37.4,70.8 37.4,60.7 41.6,60.7 45.6,67.7 45.6,67.7 45.6,60.7 48.6,60.7 48.6,70.8 44.4,70.8 
	40.4,63.4 40.3,63.4 40.3,70.8 "/>
<path class="st0" d="M58.3,71c-3.9,0-4.6-1.5-4.4-3.3H57c0,1,0.1,1.8,1.8,1.8c1,0,1.6-0.5,1.6-1.2c0-1.8-6.3-1.9-6.3-4.9
	c0-1.6,1.1-2.8,4.9-2.8c3,0,4.6,0.9,4.3,3h-3c0-0.8-0.2-1.5-1.5-1.5c-1,0-1.6,0.4-1.6,1.1c0,1.9,6.3,1.8,6.3,4.9
	C63.6,70.7,60.8,71,58.3,71"/>
<path class="st0" d="M79,60.7v7.2c0,1.5-1.3,3.1-5.1,3.1c-3.4,0-5.1-1.2-5.1-3.1v-7.2H72v7c0,1.2,0.8,1.7,1.9,1.7c1.4,0,2-0.6,2-1.7
	v-7H79"/>
<path class="st0" d="M87.7,65.1h1.4c0.8,0.1,1.5-0.5,1.6-1.2c0-0.1,0-0.2,0-0.2c0-1-0.6-1.3-1.6-1.3h-1.4V65.1z M87.7,70.8h-3.1
	V60.7h5.8c2.1,0,3.5,0.9,3.5,2.6c0,1.3-0.7,2.2-2.8,2.5l0,0c0.7,0,2.7,0.2,2.7,2c0,1,0.1,2,0.3,3h-3c-0.3-0.6-0.4-1.3-0.3-2
	c0-1.2,0.2-2.2-2.2-2.2h-0.8L87.7,70.8"/>
<path class="st0" d="M104.1,62.7L104.1,62.7l-1.5,4.3h3L104.1,62.7z M98.1,70.8l4.1-10.1h4.1l4.1,10.1h-3.3l-0.8-2.2h-4.3l-0.8,2.2
	H98.1z"/>
<polygon class="st0" points="115,70.8 115,60.7 119.2,60.7 123.2,67.7 123.3,67.7 123.3,60.7 126.2,60.7 126.2,70.8 122.1,70.8 
	118,63.4 117.9,63.4 117.9,70.8 "/>
<path class="st0" d="M131.8,65.8c0-2.7,0-5.2,5.2-5.2c3.2,0,4.5,1.2,4.3,3.3h-3.1c0-1.3-0.4-1.8-1.3-1.8c-1.8,0-2,1.1-2,3.7
	s0.2,3.7,2,3.7c1.4,0,1.4-1.2,1.4-2h3.1c0,2.7-1.6,3.6-4.5,3.6C131.8,71,131.8,68.5,131.8,65.8"/>
<polygon class="st0" points="146.5,70.8 146.5,60.7 154.7,60.7 154.7,62.3 149.6,62.3 149.6,64.8 154.3,64.8 154.3,66.3 149.6,66.3 
	149.6,69.3 154.8,69.3 154.8,70.8 "/>
<path class="st0" d="M160,37h0.3c0.3,0,0.6-0.1,0.6-0.4s-0.2-0.4-0.5-0.4c-0.1,0-0.2,0-0.3,0V37z M160,38.4h-0.6v-2.5
	c0.3-0.1,0.7-0.1,1-0.1c0.3,0,0.6,0,0.9,0.2c0.2,0.1,0.3,0.3,0.3,0.5c0,0.3-0.2,0.5-0.5,0.6l0,0c0.2,0.1,0.4,0.3,0.4,0.6
	c0,0.2,0.1,0.4,0.2,0.6H161c-0.1-0.2-0.2-0.4-0.2-0.6c0-0.3-0.2-0.4-0.5-0.4H160V38.4z M158.5,37.1c0,1.1,0.8,2,1.9,2c0,0,0,0,0.1,0
	c1,0,1.9-0.8,1.9-1.9c0,0,0-0.1,0-0.1c0-1.1-0.9-1.9-1.9-1.9S158.5,36,158.5,37.1C158.5,37.1,158.5,37.1,158.5,37.1 M162.9,37.1
	c0,1.4-1.1,2.6-2.5,2.6s-2.6-1.1-2.6-2.5c0-1.4,1.1-2.6,2.5-2.6c0,0,0.1,0,0.1,0C161.8,34.6,162.9,35.7,162.9,37.1
	C162.9,37.1,162.9,37.1,162.9,37.1"/>
<g class="st1">
	<path class="st0" d="M16.2,90.2h-2.7l0.3-1.5h7.5l-0.3,1.5h-2.7l-1.3,7.7h-2L16.2,90.2z"/>
	<path class="st0" d="M22.1,88.7h1.9l-0.6,3.6c0.3-0.3,0.9-1,2-1c1,0,1.5,0.5,1.7,0.9c0.2,0.3,0.3,0.9,0.1,1.7l-0.7,3.9h-1.9
		l0.7-3.8c0.1-0.4,0.2-1.4-0.8-1.4c-0.5,0-1.3,0.3-1.4,1.3l-0.7,3.9h-1.9L22.1,88.7z"/>
	<path class="st0" d="M30.1,95.1c-0.1,0.4-0.3,1.7,1,1.7c0.5,0,1-0.2,1.3-0.9h1.7c-0.1,0.3-0.2,0.9-0.9,1.4
		c-0.6,0.5-1.4,0.8-2.4,0.8c-0.5,0-1.6-0.1-2.1-0.8c-0.5-0.6-0.6-1.5-0.4-2.5c0.2-1,0.7-2.3,1.9-3c0.6-0.3,1.2-0.5,1.9-0.5
		c0.9,0,2,0.4,2.3,1.6c0.3,0.9,0.1,1.8,0,2.4H30.1z M32.7,94c0.1-0.3,0.2-1.4-0.9-1.4c-0.8,0-1.3,0.7-1.5,1.4H32.7z"/>
	<path class="st0" d="M45.8,91.5c0-0.2,0.1-0.6-0.1-0.9c-0.3-0.6-1-0.7-1.4-0.7c-2.2,0-3.1,2.1-3.3,3.5c-0.1,0.6-0.2,1.7,0.3,2.5
		c0.4,0.5,0.9,0.8,2,0.8c1,0,1.3-0.1,1.5-0.2l0.3-1.9h-1.8l0.3-1.5h3.8l-0.8,4.6c-0.6,0.2-1.6,0.5-3.5,0.5c-2.1,0-3.1-0.5-3.7-1.2
		c-0.9-1-0.8-2.5-0.6-3.4c0.6-3.3,2.9-5,5.7-5c1.2,0,2.4,0.3,2.9,1.2c0.5,0.7,0.4,1.4,0.3,1.9H45.8z"/>
	<path class="st0" d="M50.2,95.1c-0.1,0.4-0.3,1.7,1,1.7c0.5,0,1-0.2,1.3-0.9h1.7c-0.1,0.3-0.2,0.9-0.9,1.4
		c-0.6,0.5-1.4,0.8-2.4,0.8c-0.5,0-1.6-0.1-2.1-0.8c-0.5-0.6-0.6-1.5-0.4-2.5c0.2-1,0.7-2.3,1.9-3c0.6-0.3,1.2-0.5,1.9-0.5
		c0.9,0,2,0.4,2.3,1.6c0.3,0.9,0.1,1.8,0,2.4H50.2z M52.8,94c0.1-0.3,0.2-1.4-0.9-1.4c-0.8,0-1.3,0.7-1.5,1.4H52.8z"/>
	<path class="st0" d="M59.4,91.3c2.3,0,3.1,1.6,2.8,3.4c-0.3,1.8-1.6,3.4-4,3.4c-1.8,0-3.1-1.1-2.7-3.4
		C55.7,93.2,56.8,91.3,59.4,91.3z M58.4,96.8c0.8,0,1.5-0.5,1.8-2.2c0.1-0.9,0.2-2-1.1-2c-1.4,0-1.7,1.6-1.8,2.2
		C57.1,96.2,57.5,96.8,58.4,96.8z"/>
</g>
<g class="st1">
	<path class="st0" d="M63.7,93c0.1-0.3,0.2-1.2,0.2-1.6h1.8l-0.2,1.2c0.3-0.5,0.9-1.3,2.4-1.2l-0.3,1.7c-1.9-0.2-2.2,0.8-2.3,1.6
		l-0.6,3.2h-1.9L63.7,93z"/>
</g>
<g class="st1">
	<path class="st0" d="M74.6,91.5c-0.1,0.5-0.3,0.9-0.4,1.6l-0.8,4.8c-0.4,2.4-2.4,2.6-3.7,2.6c-0.9,0-2.7-0.1-2.5-2.1H69
		c0,0.2,0,0.9,1,0.9c0.6,0,1.1-0.3,1.3-0.8c0.1-0.3,0.2-0.5,0.4-1.5c-0.7,0.8-1.4,0.9-1.9,0.9c-1.8,0-2.4-1.6-2.2-3.2
		c0.3-1.6,1.5-3.2,3.3-3.2c1.2,0,1.5,0.6,1.6,0.9l0.2-0.9H74.6z M70.5,96.5c1.3,0,1.6-1.6,1.6-1.8c0.1-0.7,0.2-2-0.9-2
		c-0.7,0-1.4,0.5-1.6,1.9C69.5,94.9,69.2,96.5,70.5,96.5z"/>
</g>
<g class="st1">
	<path class="st0" d="M76.7,95.1c-0.1,0.4-0.3,1.7,1,1.7c0.5,0,1-0.2,1.3-0.9h1.7c-0.1,0.3-0.2,0.9-0.9,1.4
		c-0.6,0.5-1.4,0.8-2.4,0.8c-0.5,0-1.6-0.1-2.1-0.8c-0.5-0.6-0.6-1.5-0.4-2.5c0.2-1,0.7-2.3,1.9-3c0.6-0.3,1.2-0.5,1.9-0.5
		c0.9,0,2,0.4,2.3,1.6c0.3,0.9,0.1,1.8,0,2.4H76.7z M79.3,94c0.1-0.3,0.2-1.4-0.9-1.4c-0.8,0-1.3,0.7-1.5,1.4H79.3z"/>
	<path class="st0" d="M91.4,91.7c0-0.3,0.1-1.6-1.2-1.6c-1.5,0-2.3,1.5-2.7,3.4c-0.1,0.5-0.5,3.2,1.4,3.2c0.8,0,1.7-0.5,2-1.7H93
		c-0.1,0.5-0.3,1.4-1.2,2.2c-1,0.8-2,1-2.9,1c-3.2,0-3.8-2.3-3.4-4.6c0.5-2.9,2.5-4.9,5.1-4.9c2,0,3.2,1.2,2.9,3.1H91.4z"/>
	<path class="st0" d="M97.7,91.3c2.3,0,3.1,1.6,2.8,3.4c-0.3,1.8-1.6,3.4-4,3.4c-1.8,0-3.1-1.1-2.7-3.4C94,93.2,95.1,91.3,97.7,91.3
		z M96.7,96.8c0.8,0,1.5-0.5,1.8-2.2c0.1-0.9,0.2-2-1.1-2c-1.4,0-1.7,1.6-1.8,2.2C95.4,96.2,95.8,96.8,96.7,96.8z"/>
	<path class="st0" d="M102.7,88.7h1.9l-1.6,9.2h-1.9L102.7,88.7z"/>
	<path class="st0" d="M106.2,88.7h1.9l-1.6,9.2h-1.9L106.2,88.7z"/>
	<path class="st0" d="M109.1,91.4h1.9l-1.1,6.4H108L109.1,91.4z M109.5,88.7h2l-0.3,1.6h-2L109.5,88.7z"/>
	<path class="st0" d="M112.3,92.6c0,0,0.1-0.7,0.2-1.2h1.8l-0.1,1c0.2-0.3,0.9-1.1,2.3-1.1c1.3,0,1.7,0.8,1.8,1.2
		c0.1,0.4,0.1,0.7-0.2,1.9l-0.6,3.5h-1.9l0.7-4c0-0.3,0.1-0.5,0-0.7c-0.1-0.3-0.3-0.5-0.8-0.5c-0.4,0-0.8,0.2-1.1,0.5
		c-0.1,0.2-0.3,0.5-0.4,1l-0.7,3.8h-1.9L112.3,92.6z"/>
	<path class="st0" d="M120.7,96c0,0.4,0.1,0.9,0.9,0.9c0.7,0,1.1-0.4,1.1-0.8c0.1-0.3-0.1-0.5-0.8-0.7l-1.1-0.3
		c-0.5-0.2-1.5-0.5-1.3-1.8c0.2-1.2,1.5-2,3.2-2c1.3,0,2.3,0.6,2.1,1.9h-1.7c0.1-0.7-0.5-0.8-0.8-0.8c-0.5,0-0.9,0.2-1,0.6
		c-0.1,0.4,0.2,0.5,0.8,0.7l1.1,0.3c1.1,0.3,1.6,0.9,1.4,1.8c-0.2,1.1-1.3,2.2-3.3,2.2c-0.8,0-1.6-0.2-2.1-0.8
		c-0.3-0.4-0.3-1-0.3-1.3H120.7z"/>
</g>
<g class="st1">
	<path class="st0" d="M134.2,88.7l1.6,9.2h-2l-0.3-2h-3.6l-1,2h-1.9l4.9-9.2H134.2z M133.2,94.4l-0.6-3.9l-2,3.9H133.2z"/>
	<path class="st0" d="M143.5,91.5c-0.1,0.5-0.3,0.9-0.4,1.6l-0.8,4.8c-0.4,2.4-2.4,2.6-3.7,2.6c-0.9,0-2.7-0.1-2.5-2.1h1.8
		c0,0.2,0,0.9,1,0.9c0.6,0,1.1-0.3,1.3-0.8c0.1-0.3,0.2-0.5,0.4-1.5c-0.7,0.8-1.4,0.9-1.9,0.9c-1.8,0-2.4-1.6-2.2-3.2
		c0.3-1.6,1.5-3.2,3.3-3.2c1.2,0,1.5,0.6,1.6,0.9l0.2-0.9H143.5z M139.4,96.5c1.3,0,1.6-1.6,1.6-1.8c0.1-0.7,0.2-2-0.9-2
		c-0.7,0-1.4,0.5-1.6,1.9C138.4,94.9,138.1,96.5,139.4,96.5z"/>
</g>
<g class="st1">
	<path class="st0" d="M145.9,95.1c-0.1,0.4-0.3,1.7,1,1.7c0.5,0,1-0.2,1.3-0.9h1.7c-0.1,0.3-0.2,0.9-0.9,1.4
		c-0.6,0.5-1.4,0.8-2.4,0.8c-0.5,0-1.6-0.1-2.1-0.8c-0.5-0.6-0.6-1.5-0.4-2.5c0.2-1,0.7-2.3,1.9-3c0.6-0.3,1.2-0.5,1.9-0.5
		c0.9,0,2,0.4,2.3,1.6c0.3,0.9,0.1,1.8,0,2.4H145.9z M148.5,94c0.1-0.3,0.2-1.4-0.9-1.4c-0.8,0-1.3,0.7-1.5,1.4H148.5z"/>
	<path class="st0" d="M151.8,92.6c0,0,0.1-0.7,0.2-1.2h1.8l-0.1,1c0.2-0.3,0.9-1.1,2.3-1.1c1.3,0,1.7,0.8,1.8,1.2
		c0.1,0.4,0.1,0.7-0.2,1.9l-0.6,3.5H155l0.7-4c0-0.3,0.1-0.5,0-0.7c-0.1-0.3-0.3-0.5-0.8-0.5c-0.4,0-0.8,0.2-1.1,0.5
		c-0.1,0.2-0.3,0.5-0.4,1l-0.7,3.8h-1.9L151.8,92.6z"/>
	<path class="st0" d="M162.6,93.7c0-0.2,0.1-1.2-0.6-1.2c-0.9,0-1.2,1.3-1.3,2.1c-0.1,0.4-0.2,1.5,0.1,2c0.1,0.2,0.3,0.2,0.5,0.2
		c0.2,0,0.8-0.1,1.1-1.2h1.9c-0.1,0.5-0.3,1.3-1.2,1.9c-0.5,0.4-1.1,0.6-1.9,0.6c-0.9,0-1.6-0.2-2-0.9c-0.4-0.7-0.6-1.5-0.4-2.5
		c0.5-2.9,2.7-3.3,3.6-3.3c1.2,0,2.5,0.7,2.2,2.4H162.6z"/>
	<path class="st0" d="M167.3,91.4l0.6,4.5l2.2-4.5h1.9l-3.5,6.3l-1.2,2.6h-1.9l1.2-2.4l-1.4-6.5H167.3z"/>
</g>
</svg>
